<?xml version="1.0" encoding="UTF-8"?>
<svg width="14px" height="14px" viewBox="0 0 14 14" version="1.1" xmlns="http://www.w3.org/2000/svg" xmlns:xlink="http://www.w3.org/1999/xlink">
    <!-- Generator: Sketch 47.1 (45422) - http://www.bohemiancoding.com/sketch -->
    <title>heart icon</title>
    <desc>Created with Sketch.</desc>
    <defs></defs>
    <g id="Page-1" stroke="none" stroke-width="1" fill="none" fill-rule="evenodd">
        <g id="heart-icon" stroke="#FFFFFF" fill="#FF5C39">
            <path d="M6.16343238,10.6394463 L5.3001531,9.77097894 C4.68972462,9.15610768 4.07965479,8.54159715 3.46599843,7.9305136 C3.22659714,7.69242909 2.95688961,7.3962664 2.77164501,7.00613248 C2.38411976,6.18672499 2.4124534,5.25711323 2.84875554,4.45556207 C3.28200912,3.65996302 4.03840963,3.13942373 4.92392544,3.02759616 C5.69305815,2.93091942 6.39440532,3.12228886 7.00088861,3.59430942 C7.21805338,3.42404293 7.4495643,3.29129278 7.70223578,3.1915498 C8.02430674,3.0645714 8.36197913,3 8.70610729,3 C10.1005526,3 11.2893101,4.03296208 11.4711474,5.40248907 C11.5964969,6.3360689 11.3129812,7.158723 10.6290287,7.84700365 L9.62408125,8.85796095 C9.03337872,9.45281147 8.44249687,10.0474816 7.85053905,10.6410696 C7.61992477,10.8724805 7.32080764,11 7.00842033,11 C6.69477773,11 6.3949433,10.8719394 6.16343238,10.6394463 Z" id="Save"></path>
        </g>
    </g>
</svg>