<?xml version="1.0" encoding="UTF-8"?>
<svg width="31px" height="34px" viewBox="0 0 31 34" version="1.1" xmlns="http://www.w3.org/2000/svg" xmlns:xlink="http://www.w3.org/1999/xlink">
    <!-- Generator: Sketch 51.3 (57544) - http://www.bohemiancoding.com/sketch -->
    <title>Online Estimate Icon</title>
    <desc>Created with Sketch.</desc>
    <defs></defs>
    <g id="Latest-Package-Compare-&amp;-Flow-Sept-17" stroke="none" stroke-width="1" fill="none" fill-rule="evenodd">
        <g id="VUH---Home-Page" transform="translate(-749.000000, -896.000000)">
            <g id="Copy-+-Icons" transform="translate(-12.000000, 385.000000)">
                <g id="Tech-Section" transform="translate(205.000000, 471.000000)">
                    <g id="Online-Estimate" transform="translate(557.000000, 34.000000)">
                        <g id="Online-Estimate-Icon" transform="translate(0.000000, 7.000000)">
                            <path d="M3.99497653,23.4657314 L6.45441717,23.4657314 C6.76881438,23.4657314 7.05493778,23.6513796 7.18329042,23.938607 C7.31159538,24.2258344 7.25905281,24.5629687 7.04940698,24.7973787 L2.87108038,29.4725055 L15.1268503,22.7159821 L12.0929696,22.7159821 C11.7553526,22.7159821 11.4529229,22.5019929 11.3403044,22.1835617 C11.2276859,21.8649874 11.3283846,21.5082433 11.5909067,21.295781 L22.8120838,12.2211607 L18.0579821,12.2211607 C17.7299009,12.2211607 17.4390573,12.0243002 17.316903,11.7196101 C17.1947963,11.4149201 17.2691283,11.0714877 17.5063328,10.844664 L27.424864,1.35909859 L18.601669,1.35909859 L7.74609672,13.0759723 L12.4493723,13.0759723 C12.7734007,13.0759723 13.062957,13.2695884 13.1869708,13.5691255 C13.310937,13.8687581 13.242994,14.2105205 13.013895,14.4398253 L3.99497653,23.4657314 Z M0.174339936,31.6207469 C-0.0687767467,31.3150549 -0.0563324529,30.8817805 0.203901093,30.5905453 L5.45958885,24.7098745 L2.9207622,24.7098745 C2.59668609,24.7098745 2.30717746,24.5163539 2.18316364,24.2167213 C2.05919749,23.9170888 2.12714048,23.5754218 2.35623945,23.3461647 L11.3752533,14.3201154 L6.72695197,14.3201154 C6.4094556,14.3201154 6.1221879,14.1319385 5.99517028,13.8407033 C5.86815266,13.5495158 5.92565388,13.2108547 6.14154569,12.977876 L17.8219696,0.370692833 C17.9723024,0.208280533 18.1858103,0.114955486 18.4074713,0.114955486 L28.5344087,0.114955486 C28.8624422,0.114955486 29.1533335,0.311768276 29.2753925,0.616506044 C29.3974991,0.921148387 29.3231671,1.26458074 29.0859627,1.4914045 L19.1673837,10.9770176 L24.0704832,10.9770176 C24.4081479,10.9770176 24.7106253,11.1910545 24.8231961,11.5095334 C24.9357669,11.8281077 24.8349729,12.1848517 24.5723553,12.3972664 L13.3512736,21.4717912 L16.8566548,21.4717912 C17.2211153,21.4717912 17.5390884,21.7184633 17.6298698,22.0716289 C17.7206511,22.4248423 17.5610686,22.7944686 17.2418558,22.9704789 L1.1842349,31.8229035 C1.06217593,31.8902254 0.929627514,31.9226697 0.798461797,31.9226697 C0.562210932,31.9226697 0.330727995,31.8173211 0.174339936,31.6207469 Z" stroke="#FF5C39" stroke-width="0.5" fill="#FF5C39"></path>
                            <path d="M3.99497653,23.4657314 L6.45441717,23.4657314 C6.76881438,23.4657314 7.05493778,23.6513796 7.18329042,23.938607 C7.31159538,24.2258344 7.25905281,24.5629687 7.04940698,24.7973787 L2.87108038,29.4725055 L15.1268503,22.7159821 L12.0929696,22.7159821 C11.7553526,22.7159821 11.4529229,22.5019929 11.3403044,22.1835617 C11.2276859,21.8649874 11.3283846,21.5082433 11.5909067,21.295781 L22.8120838,12.2211607 L18.0579821,12.2211607 C17.7299009,12.2211607 17.4390573,12.0243002 17.316903,11.7196101 C17.1947963,11.4149201 17.2691283,11.0714877 17.5063328,10.844664 L27.424864,1.35909859 L18.601669,1.35909859 L7.74609672,13.0759723 L12.4493723,13.0759723 C12.7734007,13.0759723 13.062957,13.2695884 13.1869708,13.5691255 C13.310937,13.8687581 13.242994,14.2105205 13.013895,14.4398253 L3.99497653,23.4657314 Z" id="Path" fill="#FFFFFF"></path>
                        </g>
                    </g>
                </g>
            </g>
        </g>
    </g>
</svg>