<?xml version="1.0" encoding="UTF-8"?>
<svg width="54px" height="33px" viewBox="0 0 54 33" version="1.1" xmlns="http://www.w3.org/2000/svg" xmlns:xlink="http://www.w3.org/1999/xlink">
    <!-- Generator: Sketch 51.3 (57544) - http://www.bohemiancoding.com/sketch -->
    <title>Prof Grade Icon</title>
    <desc>Created with Sketch.</desc>
    <defs></defs>
    <g id="Latest-Package-Compare-&amp;-Flow-Sept-17" stroke="none" stroke-width="1" fill="none" fill-rule="evenodd">
        <g id="VUH---Home-Page" transform="translate(-193.000000, -895.000000)">
            <g id="Copy-+-Icons" transform="translate(-12.000000, 385.000000)">
                <g id="Tech-Section" transform="translate(205.000000, 471.000000)">
                    <g id="Lender-Grade-Technology" transform="translate(0.000000, 33.000000)">
                        <g id="Prof-Grade-Icon" transform="translate(0.000000, 6.000000)">
                            <polygon id="Fill-1" fill="#FF5C39" points="4.52576679 27.0381895 3.36067893 25.7149839 18.6341345 12.2554251 33.190841 20.3081507 45.0632952 5.49929279 46.4384724 6.60248306 33.6370306 22.570054 18.8675671 14.3997595"></polygon>
                            <g id="Group-19">
                                <path d="M10.7411991,26.2499926 C10.7411991,28.9816262 8.53376014,31.1959827 5.81082524,31.1959827 C3.08781632,31.1959827 0.880451395,28.9816262 0.880451395,26.2499926 C0.880451395,23.5183589 3.08781632,21.3040025 5.81082524,21.3040025 C8.53376014,21.3040025 10.7411991,23.5183589 10.7411991,26.2499926" id="Fill-2" fill="#FEFEFE"></path>
                                <path d="M5.81081043,22.1872054 C3.5776115,22.1872054 1.76086578,24.0097797 1.76086578,26.2499777 C1.76086578,28.4901757 3.5776115,30.31275 5.81081043,30.31275 C8.04400937,30.31275 9.86075509,28.4901757 9.86075509,26.2499777 C9.86075509,24.0097797 8.04400937,22.1872054 5.81081043,22.1872054 M5.81081043,32.0791856 C2.60672624,32.0791856 7.40229686e-06,29.4642104 7.40229686e-06,26.2499777 C7.40229686e-06,23.035745 2.60672624,20.4207698 5.81081043,20.4207698 C9.01489463,20.4207698 11.6216135,23.035745 11.6216135,26.2499777 C11.6216135,29.4642104 9.01489463,32.0791856 5.81081043,32.0791856" id="Fill-4" fill="#FF5C39"></path>
                                <path d="M25.5323502,13.1784134 C25.5323502,15.910047 23.3249113,18.1244035 20.6019764,18.1244035 C17.8789675,18.1244035 15.6716025,15.910047 15.6716025,13.1784134 C15.6716025,10.4467797 17.8789675,8.23242327 20.6019764,8.23242327 C23.3249113,8.23242327 25.5323502,10.4467797 25.5323502,13.1784134" id="Fill-6" fill="#FEFEFE"></path>
                                <path d="M20.601969,9.11562624 C18.36877,9.11562624 16.5520243,10.9382005 16.5520243,13.1783985 C16.5520243,15.4185965 18.36877,17.2411708 20.601969,17.2411708 C22.8351679,17.2411708 24.6519136,15.4185965 24.6519136,13.1783985 C24.6519136,10.9382005 22.8351679,9.11562624 20.601969,9.11562624 M20.601969,19.0076064 C17.3978848,19.0076064 14.7911659,16.3926312 14.7911659,13.1783985 C14.7911659,9.96416584 17.3978848,7.34919059 20.601969,7.34919059 C23.8060532,7.34919059 26.412772,9.96416584 26.412772,13.1783985 C26.412772,16.3926312 23.8060532,19.0076064 20.601969,19.0076064" id="Fill-8" fill="#FF5C39"></path>
                                <path d="M40.1790677,21.3039876 C40.1790677,24.0356213 37.9716288,26.2499777 35.2486939,26.2499777 C32.525685,26.2499777 30.3183201,24.0356213 30.3183201,21.3039876 C30.3183201,18.572354 32.525685,16.3579975 35.2486939,16.3579975 C37.9716288,16.3579975 40.1790677,18.572354 40.1790677,21.3039876" id="Fill-10" fill="#FEFEFE"></path>
                                <path d="M35.2486791,17.2412005 C33.0154802,17.2412005 31.1987344,19.0637748 31.1987344,21.3039728 C31.1987344,23.5441708 33.0154802,25.366745 35.2486791,25.366745 C37.481878,25.366745 39.2986238,23.5441708 39.2986238,21.3039728 C39.2986238,19.0637748 37.481878,17.2412005 35.2486791,17.2412005 M35.2486791,27.1331807 C32.0445949,27.1331807 29.4378761,24.5182054 29.4378761,21.3039728 C29.4378761,18.0897401 32.0445949,15.4747649 35.2486791,15.4747649 C38.4527633,15.4747649 41.0594821,18.0897401 41.0594821,21.3039728 C41.0594821,24.5182054 38.4527633,27.1331807 35.2486791,27.1331807" id="Fill-12" fill="#FF5C39"></path>
                                <path d="M52.5022783,5.88913366 C52.5022783,8.62076733 50.2948394,10.8351238 47.5719045,10.8351238 C44.8488955,10.8351238 42.6415306,8.62076733 42.6415306,5.88913366 C42.6415306,3.1575 44.8488955,0.943143564 47.5719045,0.943143564 C50.2948394,0.943143564 52.5022783,3.1575 52.5022783,5.88913366" id="Fill-14" fill="#FEFEFE"></path>
                                <g id="Group-18" transform="translate(41.748954, 0.000000)" fill="#FF5C39">
                                    <path d="M5.8229354,1.82634653 C3.58973646,1.82634653 1.77299074,3.64892079 1.77299074,5.88911881 C1.77299074,8.12931683 3.58973646,9.95189109 5.8229354,9.95189109 C8.05613433,9.95189109 9.87288005,8.12931683 9.87288005,5.88911881 C9.87288005,3.64892079 8.05613433,1.82634653 5.8229354,1.82634653 M5.8229354,11.7183267 C2.6188512,11.7183267 0.0121323645,9.10335149 0.0121323645,5.88911881 C0.0121323645,2.67488614 2.6188512,0.0599108911 5.8229354,0.0599108911 C9.02701959,0.0599108911 11.6337384,2.67488614 11.6337384,5.88911881 C11.6337384,9.10335149 9.02701959,11.7183267 5.8229354,11.7183267" id="Fill-16"></path>
                                </g>
                            </g>
                        </g>
                    </g>
                </g>
            </g>
        </g>
    </g>
</svg>